<svg width="144" height="192" viewBox="0 0 144 192" fill="none" xmlns="http://www.w3.org/2000/svg">
<path d="M85.9769 1.01446C85.9173 0.624911 85.6118 0.301051 85.2009 0.238418C84.6952 0.162037 84.2247 0.508811 84.1483 1.01446C81.7377 16.9247 68.3939 35.0669 56.4142 54.1775C57.8486 53.814 59.3549 53.5695 60.9329 53.4962C78.3097 52.6774 88.4929 65.4667 89.2308 77.9062C89.99 90.7185 81.3375 101.6 74.7641 108.671C66.4156 117.651 53.4918 127.279 45.0425 132.149L44.6499 132.375C59.4221 153.877 88.6457 160.142 111.009 146.208C172.821 107.695 91.3511 36.4753 85.9784 1.01293L85.9769 1.01446Z" fill="white"/>
<path d="M97.3379 35.5817C118.066 73.3065 138.734 116.688 98.4027 144.603C96.374 146.006 94.2857 147.216 92.1592 148.257C96.2487 147.031 100.245 145.259 104.043 142.893C148.06 115.466 119.418 71.455 97.3379 35.5817Z" fill="#EF150D"/>
<path d="M84.8006 78.1689C84.1453 67.1043 74.8909 57.2847 61.1392 57.9278C50.157 58.4426 42.9023 69.0032 42.9023 69.0032C42.9023 69.0032 35.6766 58.4228 24.6945 57.879C10.9473 57.1992 1.66393 66.9959 0.981075 78.0574C0.304335 88.9892 7.99136 98.8622 14.1966 105.573C22.6322 114.696 35.3757 123.987 42.8229 128.304C50.2823 124.006 63.0502 114.748 71.5103 105.648C77.7338 98.9539 85.4453 89.1022 84.7976 78.1674L84.8006 78.1689Z" fill="white"/>
<path d="M9.66797 185.691V183.249H14.7827C15.9302 183.249 16.8091 183.017 17.4194 182.553C18.0298 182.081 18.335 181.402 18.335 180.515V180.49C18.335 179.896 18.1925 179.4 17.9077 179.001C17.631 178.602 17.216 178.301 16.6626 178.098C16.1092 177.894 15.4256 177.793 14.6118 177.793H9.66797V175.522H14.0991C15.2384 175.522 16.1051 175.298 16.6992 174.851C17.2933 174.403 17.5903 173.768 17.5903 172.946V172.922C17.5903 172.157 17.3299 171.567 16.8091 171.152C16.2882 170.729 15.5599 170.517 14.624 170.517H9.66797V168.076H15.4053C16.4876 168.076 17.4235 168.259 18.2129 168.625C19.0023 168.983 19.6126 169.492 20.0439 170.151C20.4753 170.81 20.6909 171.587 20.6909 172.483V172.507C20.6909 173.142 20.5485 173.732 20.2637 174.277C19.9788 174.822 19.5841 175.282 19.0796 175.656C18.5832 176.023 18.0216 176.25 17.395 176.34V176.425C18.217 176.499 18.9372 176.727 19.5557 177.109C20.1823 177.492 20.6706 177.988 21.0205 178.598C21.3704 179.209 21.5454 179.9 21.5454 180.673V180.698C21.5454 181.731 21.3013 182.623 20.813 183.371C20.3247 184.112 19.6289 184.686 18.7256 185.092C17.8304 185.491 16.7521 185.691 15.4907 185.691H9.66797ZM8.09326 185.691V168.076H11.2427V185.691H8.09326ZM23.7183 185.691V167.954H26.7578V185.691H23.7183ZM35.2417 185.947C33.964 185.947 32.8532 185.678 31.9092 185.141C30.9733 184.596 30.245 183.819 29.7241 182.81C29.2114 181.801 28.9551 180.596 28.9551 179.196V179.172C28.9551 177.78 29.2155 176.58 29.7363 175.571C30.2572 174.562 30.9896 173.789 31.9336 173.252C32.8776 172.706 33.9803 172.434 35.2417 172.434C36.5031 172.434 37.6058 172.706 38.5498 173.252C39.4938 173.789 40.2262 174.562 40.7471 175.571C41.2679 176.572 41.5283 177.772 41.5283 179.172V179.196C41.5283 180.596 41.2679 181.801 40.7471 182.81C40.2344 183.819 39.506 184.596 38.562 185.141C37.6261 185.678 36.5194 185.947 35.2417 185.947ZM35.2539 183.493C35.9049 183.493 36.4665 183.326 36.9385 182.993C37.4105 182.651 37.7767 182.163 38.0371 181.528C38.2975 180.885 38.4277 180.108 38.4277 179.196V179.172C38.4277 178.269 38.2975 177.5 38.0371 176.865C37.7767 176.222 37.4064 175.734 36.9263 175.4C36.4461 175.058 35.8846 174.887 35.2417 174.887C34.5988 174.887 34.0373 175.058 33.5571 175.4C33.077 175.742 32.7067 176.23 32.4463 176.865C32.1859 177.5 32.0557 178.269 32.0557 179.172V179.196C32.0557 180.108 32.1859 180.885 32.4463 181.528C32.7067 182.163 33.077 182.651 33.5571 182.993C34.0373 183.326 34.6029 183.493 35.2539 183.493ZM49.353 185.947C48.0754 185.947 46.9645 185.678 46.0205 185.141C45.0846 184.596 44.3563 183.819 43.8354 182.81C43.3228 181.801 43.0664 180.596 43.0664 179.196V179.172C43.0664 177.78 43.3268 176.58 43.8477 175.571C44.3685 174.562 45.1009 173.789 46.0449 173.252C46.9889 172.706 48.0916 172.434 49.353 172.434C50.6144 172.434 51.7171 172.706 52.6611 173.252C53.6051 173.789 54.3376 174.562 54.8584 175.571C55.3792 176.572 55.6396 177.772 55.6396 179.172V179.196C55.6396 180.596 55.3792 181.801 54.8584 182.81C54.3457 183.819 53.6174 184.596 52.6733 185.141C51.7375 185.678 50.6307 185.947 49.353 185.947ZM49.3652 183.493C50.0163 183.493 50.5778 183.326 51.0498 182.993C51.5218 182.651 51.888 182.163 52.1484 181.528C52.4089 180.885 52.5391 180.108 52.5391 179.196V179.172C52.5391 178.269 52.4089 177.5 52.1484 176.865C51.888 176.222 51.5177 175.734 51.0376 175.4C50.5575 175.058 49.9959 174.887 49.353 174.887C48.7101 174.887 48.1486 175.058 47.6685 175.4C47.1883 175.742 46.818 176.23 46.5576 176.865C46.2972 177.5 46.167 178.269 46.167 179.172V179.196C46.167 180.108 46.2972 180.885 46.5576 181.528C46.818 182.163 47.1883 182.651 47.6685 182.993C48.1486 183.326 48.7142 183.493 49.3652 183.493ZM62.5488 185.947C61.4583 185.947 60.5103 185.674 59.7046 185.129C58.8989 184.584 58.2764 183.807 57.8369 182.798C57.3975 181.78 57.1777 180.58 57.1777 179.196V179.184C57.1777 177.793 57.3975 176.592 57.8369 175.583C58.2764 174.574 58.8949 173.801 59.6924 173.264C60.498 172.719 61.4461 172.446 62.5366 172.446C63.147 172.446 63.7126 172.544 64.2334 172.739C64.7542 172.934 65.214 173.215 65.6128 173.581C66.0197 173.947 66.3411 174.387 66.5771 174.9H66.6626V167.954H69.7021V185.691H66.6626V183.506H66.5771C66.3411 184.018 66.0238 184.454 65.625 184.812C65.2344 185.17 64.7786 185.451 64.2578 185.654C63.7451 185.849 63.1755 185.947 62.5488 185.947ZM63.4644 183.383C64.0991 183.383 64.6566 183.213 65.1367 182.871C65.625 182.529 66.0034 182.045 66.272 181.418C66.5405 180.791 66.6748 180.051 66.6748 179.196V179.184C66.6748 178.33 66.5365 177.589 66.2598 176.963C65.9912 176.336 65.6169 175.852 65.1367 175.51C64.6566 175.168 64.0991 174.997 63.4644 174.997C62.8133 174.997 62.2477 175.168 61.7676 175.51C61.2874 175.844 60.9172 176.324 60.6567 176.95C60.4045 177.569 60.2783 178.313 60.2783 179.184V179.196C60.2783 180.059 60.4045 180.804 60.6567 181.43C60.9172 182.057 61.2874 182.541 61.7676 182.883C62.2477 183.217 62.8133 183.383 63.4644 183.383ZM77.9907 185.691V168.076H81.1401V175.4H89.7095V168.076H92.8467V185.691H89.7095V178.049H81.1401V185.691H77.9907ZM101.55 185.947C100.273 185.947 99.1618 185.678 98.2178 185.141C97.2819 184.596 96.5535 183.819 96.0327 182.81C95.52 181.801 95.2637 180.596 95.2637 179.196V179.172C95.2637 177.78 95.5241 176.58 96.0449 175.571C96.5658 174.562 97.2982 173.789 98.2422 173.252C99.1862 172.706 100.289 172.434 101.55 172.434C102.812 172.434 103.914 172.706 104.858 173.252C105.802 173.789 106.535 174.562 107.056 175.571C107.576 176.572 107.837 177.772 107.837 179.172V179.196C107.837 180.596 107.576 181.801 107.056 182.81C106.543 183.819 105.815 184.596 104.871 185.141C103.935 185.678 102.828 185.947 101.55 185.947ZM101.562 183.493C102.214 183.493 102.775 183.326 103.247 182.993C103.719 182.651 104.085 182.163 104.346 181.528C104.606 180.885 104.736 180.108 104.736 179.196V179.172C104.736 178.269 104.606 177.5 104.346 176.865C104.085 176.222 103.715 175.734 103.235 175.4C102.755 175.058 102.193 174.887 101.55 174.887C100.907 174.887 100.346 175.058 99.8657 175.4C99.3856 175.742 99.0153 176.23 98.7549 176.865C98.4945 177.5 98.3643 178.269 98.3643 179.172V179.196C98.3643 180.108 98.4945 180.885 98.7549 181.528C99.0153 182.163 99.3856 182.651 99.8657 182.993C100.346 183.326 100.911 183.493 101.562 183.493ZM109.924 185.691V172.69H112.964V174.765H113.049C113.326 174.057 113.782 173.492 114.417 173.069C115.051 172.645 115.796 172.434 116.65 172.434C117.253 172.434 117.794 172.535 118.274 172.739C118.754 172.942 119.165 173.235 119.507 173.618C119.849 174 120.097 174.464 120.251 175.009H120.337C120.549 174.48 120.85 174.025 121.24 173.642C121.639 173.26 122.103 172.963 122.632 172.751C123.169 172.54 123.751 172.434 124.377 172.434C125.232 172.434 125.977 172.613 126.611 172.971C127.246 173.329 127.738 173.833 128.088 174.485C128.438 175.127 128.613 175.888 128.613 176.767V185.691H125.574V177.512C125.574 176.975 125.484 176.519 125.305 176.145C125.126 175.77 124.862 175.486 124.512 175.29C124.17 175.095 123.747 174.997 123.242 174.997C122.746 174.997 122.31 175.111 121.936 175.339C121.562 175.559 121.269 175.868 121.057 176.267C120.854 176.666 120.752 177.125 120.752 177.646V185.691H117.786V177.353C117.786 176.865 117.692 176.446 117.505 176.096C117.318 175.738 117.053 175.465 116.711 175.278C116.37 175.091 115.959 174.997 115.479 174.997C114.99 174.997 114.555 175.115 114.172 175.351C113.798 175.587 113.501 175.913 113.281 176.328C113.07 176.735 112.964 177.207 112.964 177.744V185.691H109.924ZM136.89 185.947C135.596 185.947 134.481 185.674 133.545 185.129C132.609 184.584 131.889 183.807 131.384 182.798C130.888 181.788 130.64 180.596 130.64 179.221V179.209C130.64 177.85 130.892 176.661 131.396 175.644C131.901 174.627 132.609 173.838 133.521 173.276C134.432 172.715 135.506 172.434 136.743 172.434C137.98 172.434 139.046 172.706 139.941 173.252C140.845 173.789 141.541 174.55 142.029 175.534C142.517 176.511 142.761 177.65 142.761 178.952V179.941H132.141V177.915H141.296L139.844 179.807V178.635C139.844 177.78 139.714 177.072 139.453 176.511C139.193 175.941 138.831 175.518 138.367 175.241C137.911 174.957 137.382 174.814 136.78 174.814C136.178 174.814 135.64 174.961 135.168 175.254C134.696 175.547 134.326 175.978 134.058 176.548C133.789 177.109 133.655 177.805 133.655 178.635V179.819C133.655 180.608 133.789 181.284 134.058 181.845C134.326 182.399 134.705 182.826 135.193 183.127C135.689 183.428 136.275 183.579 136.951 183.579C137.463 183.579 137.911 183.501 138.293 183.347C138.676 183.184 138.989 182.981 139.233 182.736C139.486 182.484 139.661 182.22 139.758 181.943L139.783 181.845H142.627L142.603 181.98C142.497 182.468 142.297 182.948 142.004 183.42C141.72 183.892 141.337 184.319 140.857 184.702C140.385 185.084 139.815 185.389 139.148 185.617C138.489 185.837 137.736 185.947 136.89 185.947Z" fill="white"/>
</svg>
