<svg width="153" height="230" viewBox="0 0 153 230" fill="none" xmlns="http://www.w3.org/2000/svg">
<path d="M97.3735 1.27838C97.3054 0.832868 96.956 0.462475 96.486 0.390842C95.9077 0.303486 95.3696 0.700086 95.2822 1.27838C92.5253 19.4747 77.2641 40.2235 63.5632 62.08C65.2037 61.6642 66.9264 61.3847 68.7312 61.3008C88.6047 60.3644 100.251 74.9913 101.095 89.2181C101.963 103.871 92.0675 116.316 84.5496 124.403C75.0016 134.673 60.2209 145.685 50.5576 151.255L50.1086 151.514C67.0033 176.104 100.426 183.269 126.002 167.334C196.696 123.287 103.52 41.8344 97.3753 1.27664L97.3735 1.27838Z" fill="url(#paint0_linear_6_47)"/>
<g style="mix-blend-mode:screen">
<path d="M110.367 40.8123C134.074 83.9575 157.71 133.572 111.585 165.498C109.264 167.103 106.876 168.487 104.444 169.677C109.121 168.275 113.692 166.249 118.035 163.542C168.377 132.175 135.62 81.84 110.367 40.8123Z" fill="url(#paint1_linear_6_47)"/>
</g>
<path d="M96.0282 89.5186C95.2787 76.8642 84.6946 65.6337 68.967 66.3692C56.407 66.958 48.1099 79.0359 48.1099 79.0359C48.1099 79.0359 39.846 66.9353 27.2859 66.3133C11.5635 65.5358 0.94626 76.7402 0.165296 89.3911C-0.60868 101.893 8.18284 113.185 15.2797 120.86C24.9273 131.294 39.5018 141.92 48.019 146.857C56.5502 141.941 71.1527 131.354 80.8283 120.946C87.9461 113.29 96.7655 102.023 96.0247 89.5169L96.0282 89.5186Z" fill="url(#paint2_linear_6_47)"/>
<path d="M9.11676 220.621V217.203H16.2432C17.8611 217.203 19.0915 216.879 19.9346 216.229C20.7891 215.58 21.2164 214.634 21.2164 213.392V213.358C21.2164 212.526 21.017 211.831 20.6182 211.273C20.2309 210.703 19.6498 210.282 18.8751 210.008C18.1003 209.724 17.1376 209.581 15.9869 209.581H9.11676V206.385H15.2862C16.8812 206.385 18.0946 206.072 18.9263 205.445C19.758 204.819 20.1739 203.919 20.1739 202.745V202.711C20.1739 201.651 19.8093 200.831 19.0801 200.25C18.3624 199.669 17.3484 199.379 16.0381 199.379H9.11676V195.961H17.149C18.6529 195.961 19.9517 196.217 21.0455 196.73C22.1506 197.231 23.0051 197.943 23.6089 198.866C24.2242 199.789 24.5318 200.877 24.5318 202.13V202.164C24.5318 203.053 24.3267 203.885 23.9166 204.659C23.5178 205.423 22.9652 206.066 22.2589 206.59C21.5525 207.103 20.7606 207.422 19.8834 207.547V207.633C21.0341 207.735 22.0481 208.054 22.9254 208.59C23.8026 209.125 24.4862 209.826 24.9761 210.692C25.466 211.547 25.711 212.521 25.711 213.614V213.649C25.711 215.084 25.3692 216.326 24.6856 217.374C24.002 218.411 23.0279 219.214 21.7632 219.784C20.51 220.342 19.0061 220.621 17.2515 220.621H9.11676ZM6.91217 220.621V195.961H11.3214V220.621H6.91217ZM28.8555 220.621V195.961H37.8619C40.3228 195.961 42.4249 196.439 44.168 197.396C45.9112 198.353 47.2499 199.743 48.1841 201.566C49.1184 203.389 49.5855 205.599 49.5855 208.197V208.231C49.5855 210.829 49.1184 213.056 48.1841 214.913C47.2613 216.759 45.9226 218.172 44.168 219.151C42.4249 220.131 40.3228 220.621 37.8619 220.621H28.8555ZM33.2647 216.913H37.4005C39.0639 216.913 40.4652 216.582 41.6046 215.922C42.7439 215.249 43.6098 214.275 44.2022 212.999C44.7947 211.712 45.0909 210.128 45.0909 208.248V208.214C45.0909 206.38 44.789 204.825 44.1851 203.548C43.5927 202.272 42.7211 201.31 41.5704 200.66C40.4311 199.999 39.0411 199.669 37.4005 199.669H33.2647V216.913ZM62.3345 220.621V217.203H69.461C71.0788 217.203 72.3093 216.879 73.1524 216.229C74.0069 215.58 74.4341 214.634 74.4341 213.392V213.358C74.4341 212.526 74.2348 211.831 73.836 211.273C73.4486 210.703 72.8676 210.282 72.0928 210.008C71.3181 209.724 70.3554 209.581 69.2047 209.581H62.3345V206.385H68.504C70.099 206.385 71.3124 206.072 72.1441 205.445C72.9758 204.819 73.3917 203.919 73.3917 202.745V202.711C73.3917 201.651 73.0271 200.831 72.2979 200.25C71.5801 199.669 70.5661 199.379 69.2559 199.379H62.3345V195.961H70.3668C71.8707 195.961 73.1695 196.217 74.2632 196.73C75.3684 197.231 76.2229 197.943 76.8267 198.866C77.442 199.789 77.7496 200.877 77.7496 202.13V202.164C77.7496 203.053 77.5445 203.885 77.1343 204.659C76.7356 205.423 76.183 206.066 75.4766 206.59C74.7702 207.103 73.9784 207.422 73.1011 207.547V207.633C74.2519 207.735 75.2658 208.054 76.1431 208.59C77.0204 209.125 77.704 209.826 78.1939 210.692C78.6838 211.547 78.9288 212.521 78.9288 213.614V213.649C78.9288 215.084 78.587 216.326 77.9034 217.374C77.2198 218.411 76.2457 219.214 74.981 219.784C73.7278 220.342 72.2239 220.621 70.4693 220.621H62.3345ZM60.1299 220.621V195.961H64.5391V220.621H60.1299ZM81.7657 220.621V195.961H86.0211V220.621H81.7657ZM97.6592 220.98C95.8819 220.98 94.3381 220.604 93.0279 219.852C91.7177 219.089 90.698 218.006 89.9688 216.605C89.251 215.192 88.8922 213.512 88.8922 211.564V211.529C88.8922 209.593 89.2567 207.923 89.9859 206.522C90.7151 205.109 91.7348 204.027 93.045 203.275C94.3552 202.512 95.8876 202.13 97.6422 202.13C99.4081 202.13 100.946 202.512 102.256 203.275C103.578 204.027 104.603 205.104 105.333 206.505C106.062 207.906 106.426 209.581 106.426 211.529V211.564C106.426 213.523 106.062 215.209 105.333 216.622C104.615 218.024 103.601 219.1 102.291 219.852C100.98 220.604 99.4366 220.98 97.6592 220.98ZM97.6763 217.545C98.5764 217.545 99.3568 217.311 100.018 216.844C100.678 216.377 101.185 215.699 101.539 214.811C101.903 213.911 102.086 212.828 102.086 211.564V211.529C102.086 210.276 101.903 209.205 101.539 208.317C101.174 207.428 100.656 206.75 99.9835 206.283C99.3227 205.816 98.5422 205.582 97.6422 205.582C96.7649 205.582 95.9901 205.816 95.3179 206.283C94.6571 206.75 94.1387 207.428 93.7628 208.317C93.3982 209.205 93.2159 210.276 93.2159 211.529V211.564C93.2159 212.828 93.3982 213.911 93.7628 214.811C94.1387 215.699 94.6571 216.377 95.3179 216.844C95.9901 217.311 96.7763 217.545 97.6763 217.545ZM117.176 220.98C115.398 220.98 113.855 220.604 112.544 219.852C111.234 219.089 110.215 218.006 109.485 216.605C108.768 215.192 108.409 213.512 108.409 211.564V211.529C108.409 209.593 108.773 207.923 109.503 206.522C110.232 205.109 111.251 204.027 112.562 203.275C113.872 202.512 115.404 202.13 117.159 202.13C118.925 202.13 120.463 202.512 121.773 203.275C123.095 204.027 124.12 205.104 124.849 206.505C125.578 207.906 125.943 209.581 125.943 211.529V211.564C125.943 213.523 125.578 215.209 124.849 216.622C124.131 218.024 123.117 219.1 121.807 219.852C120.497 220.604 118.953 220.98 117.176 220.98ZM117.193 217.545C118.093 217.545 118.873 217.311 119.534 216.844C120.195 216.377 120.702 215.699 121.055 214.811C121.42 213.911 121.602 212.828 121.602 211.564V211.529C121.602 210.276 121.42 209.205 121.055 208.317C120.691 207.428 120.172 206.75 119.5 206.283C118.839 205.816 118.059 205.582 117.159 205.582C116.281 205.582 115.507 205.816 114.835 206.283C114.174 206.75 113.655 207.428 113.279 208.317C112.915 209.205 112.732 210.276 112.732 211.529V211.564C112.732 212.828 112.915 213.911 113.279 214.811C113.655 215.699 114.174 216.377 114.835 216.844C115.507 217.311 116.293 217.545 117.193 217.545ZM135.411 220.98C133.884 220.98 132.557 220.604 131.429 219.852C130.312 219.089 129.446 218.001 128.831 216.588C128.227 215.175 127.925 213.5 127.925 211.564V211.547C127.925 209.598 128.233 207.923 128.848 206.522C129.463 205.109 130.329 204.027 131.446 203.275C132.562 202.512 133.878 202.13 135.394 202.13C136.26 202.13 137.051 202.272 137.769 202.557C138.498 202.831 139.142 203.229 139.7 203.754C140.259 204.266 140.709 204.887 141.05 205.616H141.153V195.961H145.391V220.621H141.153V217.545H141.05C140.72 218.263 140.276 218.878 139.717 219.391C139.17 219.892 138.532 220.285 137.803 220.57C137.086 220.843 136.288 220.98 135.411 220.98ZM136.692 217.408C137.57 217.408 138.344 217.169 139.017 216.691C139.689 216.212 140.213 215.534 140.589 214.657C140.965 213.78 141.153 212.748 141.153 211.564V211.547C141.153 210.362 140.959 209.336 140.572 208.47C140.196 207.593 139.672 206.915 139 206.437C138.339 205.958 137.57 205.719 136.692 205.719C135.781 205.719 134.989 205.958 134.317 206.437C133.656 206.904 133.143 207.57 132.779 208.436C132.426 209.302 132.249 210.339 132.249 211.547V211.564C132.249 212.76 132.426 213.797 132.779 214.674C133.143 215.551 133.656 216.229 134.317 216.708C134.989 217.175 135.781 217.408 136.692 217.408Z" fill="black"/>
<defs>
<linearGradient id="paint0_linear_6_47" x1="140.316" y1="46.2633" x2="63.4968" y2="157.225" gradientUnits="userSpaceOnUse">
<stop stop-color="#FF5E58"/>
<stop offset="0.54" stop-color="#EF150D"/>
<stop offset="0.68" stop-color="#E01208"/>
<stop offset="0.89" stop-color="#C30D00"/>
<stop offset="1" stop-color="#EF150D"/>
</linearGradient>
<linearGradient id="paint1_linear_6_47" x1="135.807" y1="75.9487" x2="70.7176" y2="169.614" gradientUnits="userSpaceOnUse">
<stop stop-color="#FF5E58"/>
<stop offset="0.54" stop-color="#EF150D"/>
<stop offset="0.68" stop-color="#E01208"/>
<stop offset="0.89" stop-color="#C30D00"/>
<stop offset="1" stop-color="#EF150D"/>
</linearGradient>
<linearGradient id="paint2_linear_6_47" x1="48.0959" y1="78.2514" x2="48.0959" y2="147.357" gradientUnits="userSpaceOnUse">
<stop stop-color="#FF5E58"/>
<stop offset="0.54" stop-color="#EF150D"/>
<stop offset="0.68" stop-color="#E01208"/>
<stop offset="0.89" stop-color="#C30D00"/>
<stop offset="1" stop-color="#EF150D"/>
</linearGradient>
</defs>
</svg>
