<svg width="153" height="176" viewBox="0 0 153 176" fill="none" xmlns="http://www.w3.org/2000/svg">
<path d="M97.6317 1.17524C97.5636 0.729718 97.2142 0.359325 96.7442 0.287693C96.1659 0.200337 95.6278 0.596937 95.5404 1.17524C92.7835 19.3715 77.5223 40.1204 63.8214 61.9769C65.4619 61.5611 67.1846 61.2815 68.9894 61.1977C88.8629 60.2612 100.509 74.8881 101.353 89.115C102.221 103.768 92.3257 116.213 84.8078 124.3C75.2598 134.57 60.4792 145.582 50.8158 151.152L50.3668 151.41C67.2615 176.001 100.684 183.166 126.26 167.231C196.954 123.184 103.778 41.7312 97.6335 1.17349L97.6317 1.17524Z" fill="white"/>
<path d="M110.625 40.7091C134.332 83.8544 157.969 133.469 111.843 165.394C109.523 167 107.134 168.384 104.702 169.573C109.379 168.172 113.95 166.146 118.293 163.439C168.635 132.071 135.878 81.7368 110.625 40.7091Z" fill="#EF150D"/>
<path d="M96.2865 89.4155C95.5369 76.761 84.9529 65.5305 69.2253 66.2661C56.6652 66.8548 48.3681 78.9327 48.3681 78.9327C48.3681 78.9327 40.1042 66.8321 27.5441 66.2102C11.8218 65.4327 1.20448 76.637 0.423513 89.2879C-0.350463 101.79 8.44106 113.082 15.5379 120.757C25.1855 131.191 39.76 141.817 48.2772 146.754C56.8084 141.838 71.4109 131.25 81.0865 120.843C88.2043 113.187 97.0237 101.92 96.283 89.4137L96.2865 89.4155Z" fill="white"/>
</svg>
