<svg width="19" height="19" viewBox="0 0 19 19" fill="none" xmlns="http://www.w3.org/2000/svg">
<path d="M16.7547 14.0954C16.7547 14.368 16.6941 14.6482 16.5654 14.9208C16.4367 15.1933 16.2701 15.4508 16.0505 15.6931C15.6795 16.102 15.2706 16.3973 14.8088 16.5866C14.3544 16.7759 13.8623 16.8743 13.3322 16.8743C12.5599 16.8743 11.7346 16.6926 10.8638 16.3215C9.99308 15.9505 9.12232 15.4508 8.25913 14.8223C7.38837 14.1863 6.56304 13.4821 5.77557 12.7022C4.99568 11.9147 4.2915 11.0894 3.66304 10.2262C3.04215 9.36304 2.54241 8.49986 2.17896 7.64424C1.81551 6.78105 1.63379 5.95573 1.63379 5.16826C1.63379 4.65337 1.72465 4.16121 1.90637 3.7069C2.0881 3.24502 2.37583 2.82099 2.77713 2.4424C3.26173 1.96538 3.79176 1.73065 4.35207 1.73065C4.56408 1.73065 4.77609 1.77608 4.96539 1.86694C5.16226 1.95781 5.33641 2.0941 5.4727 2.29097L7.22936 4.76695C7.36566 4.95625 7.46409 5.1304 7.53224 5.29698C7.60038 5.45599 7.63824 5.61499 7.63824 5.75886C7.63824 5.94058 7.58524 6.12231 7.47923 6.29646C7.3808 6.47061 7.23693 6.65233 7.05521 6.83406L6.47975 7.43223C6.39646 7.51552 6.3586 7.61395 6.3586 7.7351C6.3586 7.79568 6.36618 7.84868 6.38132 7.90925C6.40403 7.96983 6.42675 8.01526 6.44189 8.06069C6.57819 8.31056 6.81291 8.63615 7.14607 9.02988C7.4868 9.42362 7.85025 9.82493 8.24399 10.2262C8.65286 10.6275 9.0466 10.9986 9.44791 11.3393C9.84164 11.6724 10.1672 11.8996 10.4247 12.0359C10.4625 12.051 10.508 12.0738 10.561 12.0965C10.6215 12.1192 10.6821 12.1268 10.7503 12.1268C10.879 12.1268 10.9774 12.0813 11.0607 11.998L11.6362 11.4302C11.8255 11.2409 12.0072 11.097 12.1813 11.0061C12.3555 10.9001 12.5296 10.8471 12.7189 10.8471C12.8628 10.8471 13.0142 10.8774 13.1808 10.9456C13.3474 11.0137 13.5215 11.1121 13.7108 11.2409L16.2171 13.0202C16.414 13.1565 16.5503 13.3155 16.6336 13.5048C16.7093 13.6941 16.7547 13.8834 16.7547 14.0954Z" stroke="black" stroke-miterlimit="10"/>
</svg>
