<svg width="24" height="25" viewBox="0 0 24 25" fill="none" xmlns="http://www.w3.org/2000/svg">
<path d="M22 7.22461H16" stroke="#3A3A3C" stroke-width="1.5" stroke-miterlimit="10" stroke-linecap="round" stroke-linejoin="round"/>
<path d="M6 7.22461H2" stroke="#3A3A3C" stroke-width="1.5" stroke-miterlimit="10" stroke-linecap="round" stroke-linejoin="round"/>
<path d="M10 10.7246C11.933 10.7246 13.5 9.15761 13.5 7.22461C13.5 5.29161 11.933 3.72461 10 3.72461C8.067 3.72461 6.5 5.29161 6.5 7.22461C6.5 9.15761 8.067 10.7246 10 10.7246Z" stroke="#3A3A3C" stroke-width="1.5" stroke-miterlimit="10" stroke-linecap="round" stroke-linejoin="round"/>
<path d="M22 18.2246H18" stroke="#3A3A3C" stroke-width="1.5" stroke-miterlimit="10" stroke-linecap="round" stroke-linejoin="round"/>
<path d="M8 18.2246H2" stroke="#3A3A3C" stroke-width="1.5" stroke-miterlimit="10" stroke-linecap="round" stroke-linejoin="round"/>
<path d="M14 21.7246C15.933 21.7246 17.5 20.1576 17.5 18.2246C17.5 16.2916 15.933 14.7246 14 14.7246C12.067 14.7246 10.5 16.2916 10.5 18.2246C10.5 20.1576 12.067 21.7246 14 21.7246Z" stroke="#3A3A3C" stroke-width="1.5" stroke-miterlimit="10" stroke-linecap="round" stroke-linejoin="round"/>
</svg>
