<svg width="20" height="21" viewBox="0 0 20 21" fill="none" xmlns="http://www.w3.org/2000/svg">
<g clip-path="url(#clip0_430_583)">
<path d="M19.9905 10.5789C19.9905 9.728 19.9224 9.10706 19.7752 8.46313H10.1992V12.3037H15.8201C15.7068 13.2581 15.0948 14.6955 13.7349 15.6613L13.7159 15.7899L16.7436 18.1699L16.9534 18.1911C18.8798 16.3858 19.9905 13.7296 19.9905 10.5789Z" fill="#4285F4"/>
<path d="M10.1992 20.6979C12.953 20.6979 15.2648 19.7779 16.9534 18.1912L13.7349 15.6614C12.8737 16.2708 11.7177 16.6963 10.1992 16.6963C7.50211 16.6963 5.21297 14.891 4.39695 12.3958L4.27734 12.4061L1.12906 14.8783L1.08789 14.9944C2.76508 18.3751 6.21016 20.6979 10.1992 20.6979Z" fill="#34A853"/>
<path d="M4.39695 12.3958C4.18164 11.7518 4.05703 11.0618 4.05703 10.349C4.05703 9.63598 4.18164 8.94608 4.38562 8.30215L4.37992 8.16501L1.19219 5.65305L1.08789 5.70338C0.396641 7.10626 0 8.68163 0 10.349C0 12.0163 0.396641 13.5916 1.08789 14.9944L4.39695 12.3958Z" fill="#FBBC05"/>
<path d="M10.1992 4.00156C12.1144 4.00156 13.4062 4.84097 14.1429 5.54245L17.0213 2.69073C15.2535 1.0234 12.953 0 10.1992 0C6.21016 0 2.76508 2.32275 1.08789 5.70337L4.38563 8.30214C5.21297 5.8069 7.50211 4.00156 10.1992 4.00156Z" fill="#EB4335"/>
</g>
<defs>
<clipPath id="clip0_430_583">
<rect width="20" height="20.7692" fill="white"/>
</clipPath>
</defs>
</svg>
