<svg width="25" height="25" viewBox="0 0 25 25" fill="none" xmlns="http://www.w3.org/2000/svg">
<path d="M22.5 9.24461V4.70461C22.5 3.29461 21.86 2.72461 20.27 2.72461H16.23C14.64 2.72461 14 3.29461 14 4.70461V9.23461C14 10.6546 14.64 11.2146 16.23 11.2146H20.27C21.86 11.2246 22.5 10.6546 22.5 9.24461Z" stroke="#FB0900" stroke-width="1.5" stroke-linecap="round" stroke-linejoin="round"/>
<path d="M22.5 20.4946V16.4546C22.5 14.8646 21.86 14.2246 20.27 14.2246H16.23C14.64 14.2246 14 14.8646 14 16.4546V20.4946C14 22.0846 14.64 22.7246 16.23 22.7246H20.27C21.86 22.7246 22.5 22.0846 22.5 20.4946Z" stroke="#FB0900" stroke-width="1.5" stroke-linecap="round" stroke-linejoin="round"/>
<path d="M11 9.24461V4.70461C11 3.29461 10.36 2.72461 8.77 2.72461H4.73C3.14 2.72461 2.5 3.29461 2.5 4.70461V9.23461C2.5 10.6546 3.14 11.2146 4.73 11.2146H8.77C10.36 11.2246 11 10.6546 11 9.24461Z" stroke="#FB0900" stroke-width="1.5" stroke-linecap="round" stroke-linejoin="round"/>
<path d="M11 20.4946V16.4546C11 14.8646 10.36 14.2246 8.77 14.2246H4.73C3.14 14.2246 2.5 14.8646 2.5 16.4546V20.4946C2.5 22.0846 3.14 22.7246 4.73 22.7246H8.77C10.36 22.7246 11 22.0846 11 20.4946Z" stroke="#FB0900" stroke-width="1.5" stroke-linecap="round" stroke-linejoin="round"/>
</svg>
