<svg width="25" height="25" viewBox="0 0 25 25" fill="none" xmlns="http://www.w3.org/2000/svg">
<path d="M12.4119 11.7446C12.3119 11.7346 12.1919 11.7346 12.0819 11.7446C9.70189 11.6646 7.81189 9.71463 7.81189 7.31463C7.81189 4.86463 9.79189 2.87463 12.2519 2.87463C14.7019 2.87463 16.6919 4.86463 16.6919 7.31463C16.6819 9.71463 14.7919 11.6646 12.4119 11.7446Z" stroke="#555555" stroke-width="1.5" stroke-linecap="round" stroke-linejoin="round"/>
<path d="M7.4118 15.4346C4.9918 17.0546 4.9918 19.6946 7.4118 21.3046C10.1618 23.1446 14.6718 23.1446 17.4218 21.3046C19.8418 19.6846 19.8418 17.0446 17.4218 15.4346C14.6818 13.6046 10.1718 13.6046 7.4118 15.4346Z" stroke="#555555" stroke-width="1.5" stroke-linecap="round" stroke-linejoin="round"/>
</svg>
