<svg width="24" height="25" viewBox="0 0 24 25" fill="none" xmlns="http://www.w3.org/2000/svg">
<path d="M12 6.85699V10.187" stroke="white" stroke-width="1.5" stroke-miterlimit="10" stroke-linecap="round"/>
<path d="M12.02 2.41699C8.34002 2.41699 5.36002 5.39699 5.36002 9.07699V11.177C5.36002 11.857 5.08002 12.877 4.73002 13.457L3.46002 15.577C2.68002 16.887 3.22002 18.347 4.66002 18.827C9.44002 20.417 14.61 20.417 19.39 18.827C20.74 18.377 21.32 16.797 20.59 15.577L19.32 13.457C18.97 12.877 18.69 11.847 18.69 11.177V9.07699C18.68 5.41699 15.68 2.41699 12.02 2.41699Z" stroke="white" stroke-width="1.5" stroke-miterlimit="10" stroke-linecap="round"/>
<path d="M15.33 19.237C15.33 21.067 13.83 22.567 12 22.567C11.09 22.567 10.25 22.187 9.65004 21.587C9.05004 20.987 8.67004 20.147 8.67004 19.237" stroke="white" stroke-width="1.5" stroke-miterlimit="10"/>
</svg>
