<svg width="24" height="25" viewBox="0 0 24 25" fill="none" xmlns="http://www.w3.org/2000/svg">
<path d="M9.47004 15.7799C9.28004 15.7799 9.09004 15.7099 8.94004 15.5599C8.12004 14.7399 7.67004 13.6499 7.67004 12.4999C7.67004 10.1099 9.61004 8.16992 12 8.16992C13.15 8.16992 14.24 8.61992 15.06 9.43992C15.2 9.57992 15.28 9.76992 15.28 9.96992C15.28 10.1699 15.2 10.3599 15.06 10.4999L10 15.5599C9.85004 15.7099 9.66004 15.7799 9.47004 15.7799ZM12 9.66992C10.44 9.66992 9.17004 10.9399 9.17004 12.4999C9.17004 12.9999 9.30004 13.4799 9.54004 13.8999L13.4 10.0399C12.98 9.79992 12.5 9.66992 12 9.66992Z" fill="#D0D0D1"/>
<path d="M5.59997 19.01C5.42997 19.01 5.24997 18.95 5.10997 18.83C4.03997 17.92 3.07997 16.8 2.25997 15.5C1.19997 13.85 1.19997 11.16 2.25997 9.49998C4.69997 5.67998 8.24997 3.47998 12 3.47998C14.2 3.47998 16.37 4.23998 18.27 5.66998C18.6 5.91998 18.67 6.38998 18.42 6.71998C18.17 7.04998 17.7 7.11998 17.37 6.86998C15.73 5.62998 13.87 4.97998 12 4.97998C8.76997 4.97998 5.67997 6.91998 3.51997 10.31C2.76997 11.48 2.76997 13.52 3.51997 14.69C4.26997 15.86 5.12997 16.87 6.07997 17.69C6.38997 17.96 6.42997 18.43 6.15997 18.75C6.01997 18.92 5.80997 19.01 5.59997 19.01Z" fill="#D0D0D1"/>
<path d="M11.9999 21.52C10.6699 21.52 9.36994 21.25 8.11994 20.72C7.73994 20.56 7.55994 20.12 7.71994 19.74C7.87994 19.36 8.31994 19.18 8.69994 19.34C9.75994 19.79 10.8699 20.02 11.9899 20.02C15.2199 20.02 18.3099 18.08 20.4699 14.69C21.2199 13.52 21.2199 11.48 20.4699 10.31C20.1599 9.82 19.8199 9.35 19.4599 8.91C19.1999 8.59 19.2499 8.12 19.5699 7.85C19.8899 7.59 20.3599 7.63 20.6299 7.96C21.0199 8.44 21.3999 8.96 21.7399 9.5C22.7999 11.15 22.7999 13.84 21.7399 15.5C19.2999 19.32 15.7499 21.52 11.9999 21.52Z" fill="#D0D0D1"/>
<path d="M12.69 16.7699C12.34 16.7699 12.02 16.5199 11.95 16.1599C11.87 15.7499 12.14 15.3599 12.55 15.2899C13.65 15.0899 14.57 14.1699 14.77 13.0699C14.85 12.6599 15.24 12.3999 15.65 12.4699C16.06 12.5499 16.33 12.9399 16.25 13.3499C15.93 15.0799 14.55 16.4499 12.83 16.7699C12.78 16.7599 12.74 16.7699 12.69 16.7699Z" fill="#D0D0D1"/>
<path d="M1.99994 23.2502C1.80994 23.2502 1.61994 23.1802 1.46994 23.0302C1.17994 22.7402 1.17994 22.2602 1.46994 21.9702L8.93994 14.5002C9.22994 14.2102 9.70994 14.2102 9.99994 14.5002C10.2899 14.7902 10.2899 15.2702 9.99994 15.5602L2.52994 23.0302C2.37994 23.1802 2.18994 23.2502 1.99994 23.2502Z" fill="#D0D0D1"/>
<path d="M14.53 10.7199C14.34 10.7199 14.15 10.6499 14 10.4999C13.71 10.2099 13.71 9.72994 14 9.43994L21.47 1.96994C21.76 1.67994 22.24 1.67994 22.53 1.96994C22.82 2.25994 22.82 2.73994 22.53 3.02994L15.06 10.4999C14.91 10.6499 14.72 10.7199 14.53 10.7199Z" fill="#D0D0D1"/>
</svg>
